<svg width="100" height="100" viewBox="0 0 100 100" fill="none" xmlns="http://www.w3.org/2000/svg">
<rect width="100" height="100" fill="url(#paint0_linear_534_15)"/>
<path d="M22.1747 62.4649C23.6254 60.4169 24.9054 58.1982 26.0147 55.8089C27.1241 53.3342 28.1481 50.8169 29.0867 48.2569C27.3801 49.3662 25.4174 50.5609 23.1987 51.8409C20.9801 53.0356 18.9747 54.0596 17.1827 54.9129C15.6467 55.5956 14.9214 55.6382 15.0067 55.0409C15.0067 54.4436 15.2627 53.8462 15.7747 53.2489C17.3107 51.6276 18.9747 49.7502 20.7667 47.6169C22.5587 45.4836 24.3081 43.3502 26.0147 41.2169C27.7214 38.9982 29.2574 36.9076 30.6227 34.9449C32.0734 32.8969 33.1827 31.1476 33.9507 29.6969C34.2921 29.0996 34.8894 28.8862 35.7427 29.0569C36.5961 29.1422 37.4494 29.4409 38.3027 29.9529C39.1561 30.4649 39.8814 31.1049 40.4787 31.8729C41.0761 32.5556 41.3321 33.1956 41.2467 33.7929L38.4307 45.3129C39.4547 44.2036 40.6494 42.9662 42.0147 41.6009C43.3801 40.1502 44.7454 38.8276 46.1107 37.6329C47.5614 36.4382 48.9267 35.3716 50.2067 34.4329C51.4867 33.4942 52.5534 32.8969 53.4067 32.6409C53.9187 32.4702 54.6867 32.5129 55.7107 32.7689C56.8201 33.0249 57.8867 33.4089 58.9107 33.9209C59.9347 34.4329 60.7881 35.0302 61.4707 35.7129C62.2387 36.3956 62.5801 37.0356 62.4947 37.6329C62.3241 38.8276 61.9827 40.5769 61.4707 42.8809C61.0441 45.0996 60.6601 47.3182 60.3187 49.5369C59.9774 51.7556 59.8067 53.7182 59.8067 55.4249C59.8067 57.0462 60.1481 57.8996 60.8307 57.9849C61.7694 58.0702 62.9641 57.6862 64.4147 56.8329C65.8654 55.9796 67.3161 54.9982 68.7667 53.8889C70.3027 52.6942 71.7107 51.5849 72.9907 50.5609C74.2707 49.4516 75.2521 48.7262 75.9347 48.3849C76.9587 47.8729 78.0254 47.4889 79.1347 47.2329C80.3294 46.9769 81.6521 46.3796 83.1027 45.4409C83.6147 45.1849 83.9987 45.0996 84.2547 45.1849C84.5961 45.1849 84.5534 45.5262 84.1267 46.2089C82.7614 48.0862 81.2254 50.1769 79.5187 52.4809C77.8121 54.7849 76.0627 56.9609 74.2707 59.0089C72.4787 61.0569 70.7294 62.7636 69.0227 64.1289C67.3161 65.4942 65.7801 66.1769 64.4147 66.1769C63.6467 66.0916 62.7507 65.7929 61.7267 65.2809C60.7881 64.6836 59.8494 64.0009 58.9107 63.2329C57.9721 62.4649 57.1187 61.6542 56.3507 60.8009C55.5827 59.9476 55.0281 59.1796 54.6867 58.4969C53.7481 56.5342 53.1934 54.1876 53.0227 51.4569C52.9374 48.6409 52.9801 45.8676 53.1507 43.1369C51.1027 44.8436 48.9267 46.8062 46.6227 49.0249C44.4041 51.1582 42.1854 53.3769 39.9667 55.6809C37.8334 57.8996 35.7854 60.0756 33.8227 62.2089C31.9454 64.3422 30.3241 66.2196 28.9587 67.8409L27.0387 70.0169C26.5267 70.5289 25.7587 70.6996 24.7347 70.5289C23.7961 70.3582 22.8574 69.9742 21.9187 69.3769C21.0654 68.7796 20.3827 68.0969 19.8707 67.3289C19.4441 66.5609 19.4441 65.9209 19.8707 65.4089L22.1747 62.4649Z" fill="white"/>
<defs>
<linearGradient id="paint0_linear_534_15" x1="104.5" y1="-3" x2="50" y2="100" gradientUnits="userSpaceOnUse">
<stop stop-color="#1CBFFF"/>
<stop offset="1" stop-color="#1A8160"/>
</linearGradient>
</defs>
</svg>
